<svg width="90" height="15" viewBox="0 0 90 15" fill="none" xmlns="http://www.w3.org/2000/svg">
<mask id="path-1-inside-1_1_2612" fill="white">
<path d="M6.85346 0.46473C7.14123 -0.15491 8.02214 -0.15491 8.30991 0.46473L9.95265 4.00204C10.0696 4.25396 10.3085 4.42751 10.5843 4.46093L14.4561 4.93019C15.1343 5.01239 15.4065 5.85019 14.9062 6.31535L12.0496 8.97079C11.8462 9.1599 11.7549 9.44072 11.8084 9.71329L12.5585 13.5406C12.6899 14.2111 11.9773 14.7289 11.3802 14.3967L7.97204 12.5005C7.72932 12.3655 7.43404 12.3655 7.19132 12.5005L3.78314 14.3967C3.18611 14.7289 2.47344 14.2111 2.60485 13.5406L3.35501 9.71329C3.40844 9.44072 3.31719 9.1599 3.11376 8.97079L0.257216 6.31535C-0.243173 5.85019 0.0290457 5.01239 0.707282 4.93019L4.5791 4.46093C4.85484 4.42751 5.09372 4.25396 5.21072 4.00204L6.85346 0.46473Z"/>
<path d="M25.451 0.46473C25.7387 -0.15491 26.6196 -0.15491 26.9074 0.46473L28.5501 4.00204C28.6671 4.25396 28.906 4.42751 29.1818 4.46093L33.0536 4.93019C33.7318 5.01239 34.004 5.85019 33.5036 6.31535L30.6471 8.97079C30.4437 9.1599 30.3524 9.44072 30.4058 9.71329L31.156 13.5406C31.2874 14.2111 30.5747 14.7289 29.9777 14.3967L26.5695 12.5005C26.3268 12.3655 26.0315 12.3655 25.7888 12.5005L22.3806 14.3967C21.7836 14.7289 21.0709 14.2111 21.2023 13.5406L21.9525 9.71329C22.0059 9.44072 21.9147 9.1599 21.7113 8.97079L18.8547 6.31535C18.3543 5.85019 18.6265 5.01239 19.3048 4.93019L23.1766 4.46093C23.4523 4.42751 23.6912 4.25396 23.8082 4.00204L25.451 0.46473Z"/>
<path d="M44.0484 0.46473C44.3362 -0.15491 45.2171 -0.15491 45.5049 0.46473L47.1476 4.00204C47.2646 4.25396 47.5035 4.42751 47.7793 4.46093L51.6511 4.93019C52.3293 5.01239 52.6015 5.85019 52.1011 6.31535L49.2446 8.97079C49.0412 9.1599 48.9499 9.44072 49.0033 9.71329L49.7535 13.5406C49.8849 14.2111 49.1722 14.7289 48.5752 14.3967L45.167 12.5005C44.9243 12.3655 44.629 12.3655 44.3863 12.5005L40.9781 14.3967C40.3811 14.7289 39.6684 14.2111 39.7998 13.5406L40.55 9.71329C40.6034 9.44072 40.5122 9.1599 40.3087 8.97079L37.4522 6.31535C36.9518 5.85019 37.224 5.01239 37.9023 4.93019L41.7741 4.46093C42.0498 4.42751 42.2887 4.25396 42.4057 4.00204L44.0484 0.46473Z"/>
<path d="M62.6459 0.46473C62.9337 -0.15491 63.8146 -0.15491 64.1024 0.46473L65.7451 4.00204C65.8621 4.25396 66.101 4.42751 66.3768 4.46093L70.2486 4.93019C70.9268 5.01239 71.199 5.85019 70.6986 6.31535L67.8421 8.97079C67.6387 9.1599 67.5474 9.44072 67.6008 9.71329L68.351 13.5406C68.4824 14.2111 67.7697 14.7289 67.1727 14.3967L63.7645 12.5005C63.5218 12.3655 63.2265 12.3655 62.9838 12.5005L59.5756 14.3967C58.9786 14.7289 58.2659 14.2111 58.3973 13.5406L59.1475 9.71329C59.2009 9.44072 59.1097 9.1599 58.9062 8.97079L56.0497 6.31535C55.5493 5.85019 55.8215 5.01239 56.4998 4.93019L60.3716 4.46093C60.6473 4.42751 60.8862 4.25396 61.0032 4.00204L62.6459 0.46473Z"/>
<path d="M81.2434 0.46473C81.5312 -0.15491 82.4121 -0.15491 82.6999 0.46473L84.3426 4.00204C84.4596 4.25396 84.6985 4.42751 84.9742 4.46093L88.8461 4.93019C89.5243 5.01239 89.7965 5.85019 89.2961 6.31535L86.4396 8.97079C86.2362 9.1599 86.1449 9.44072 86.1983 9.71329L86.9485 13.5406C87.0799 14.2111 86.3672 14.7289 85.7702 14.3967L82.362 12.5005C82.1193 12.3655 81.824 12.3655 81.5813 12.5005L78.1731 14.3967C77.5761 14.7289 76.8634 14.2111 76.9948 13.5406L77.745 9.71329C77.7984 9.44072 77.7072 9.1599 77.5037 8.97079L74.6472 6.31535C74.1468 5.85019 74.419 5.01239 75.0973 4.93019L78.9691 4.46093C79.2448 4.42751 79.4837 4.25396 79.6007 4.00204L81.2434 0.46473Z"/>
</mask>
<path d="M6.85346 0.46473C7.14123 -0.15491 8.02214 -0.15491 8.30991 0.46473L9.95265 4.00204C10.0696 4.25396 10.3085 4.42751 10.5843 4.46093L14.4561 4.93019C15.1343 5.01239 15.4065 5.85019 14.9062 6.31535L12.0496 8.97079C11.8462 9.1599 11.7549 9.44072 11.8084 9.71329L12.5585 13.5406C12.6899 14.2111 11.9773 14.7289 11.3802 14.3967L7.97204 12.5005C7.72932 12.3655 7.43404 12.3655 7.19132 12.5005L3.78314 14.3967C3.18611 14.7289 2.47344 14.2111 2.60485 13.5406L3.35501 9.71329C3.40844 9.44072 3.31719 9.1599 3.11376 8.97079L0.257216 6.31535C-0.243173 5.85019 0.0290457 5.01239 0.707282 4.93019L4.5791 4.46093C4.85484 4.42751 5.09372 4.25396 5.21072 4.00204L6.85346 0.46473Z" fill="url(#paint0_linear_1_2612)"/>
<path d="M25.451 0.46473C25.7387 -0.15491 26.6196 -0.15491 26.9074 0.46473L28.5501 4.00204C28.6671 4.25396 28.906 4.42751 29.1818 4.46093L33.0536 4.93019C33.7318 5.01239 34.004 5.85019 33.5036 6.31535L30.6471 8.97079C30.4437 9.1599 30.3524 9.44072 30.4058 9.71329L31.156 13.5406C31.2874 14.2111 30.5747 14.7289 29.9777 14.3967L26.5695 12.5005C26.3268 12.3655 26.0315 12.3655 25.7888 12.5005L22.3806 14.3967C21.7836 14.7289 21.0709 14.2111 21.2023 13.5406L21.9525 9.71329C22.0059 9.44072 21.9147 9.1599 21.7113 8.97079L18.8547 6.31535C18.3543 5.85019 18.6265 5.01239 19.3048 4.93019L23.1766 4.46093C23.4523 4.42751 23.6912 4.25396 23.8082 4.00204L25.451 0.46473Z" fill="url(#paint1_linear_1_2612)"/>
<path d="M44.0484 0.46473C44.3362 -0.15491 45.2171 -0.15491 45.5049 0.46473L47.1476 4.00204C47.2646 4.25396 47.5035 4.42751 47.7793 4.46093L51.6511 4.93019C52.3293 5.01239 52.6015 5.85019 52.1011 6.31535L49.2446 8.97079C49.0412 9.1599 48.9499 9.44072 49.0033 9.71329L49.7535 13.5406C49.8849 14.2111 49.1722 14.7289 48.5752 14.3967L45.167 12.5005C44.9243 12.3655 44.629 12.3655 44.3863 12.5005L40.9781 14.3967C40.3811 14.7289 39.6684 14.2111 39.7998 13.5406L40.55 9.71329C40.6034 9.44072 40.5122 9.1599 40.3087 8.97079L37.4522 6.31535C36.9518 5.85019 37.224 5.01239 37.9023 4.93019L41.7741 4.46093C42.0498 4.42751 42.2887 4.25396 42.4057 4.00204L44.0484 0.46473Z" fill="url(#paint2_linear_1_2612)"/>
<path d="M62.6459 0.46473C62.9337 -0.15491 63.8146 -0.15491 64.1024 0.46473L65.7451 4.00204C65.8621 4.25396 66.101 4.42751 66.3768 4.46093L70.2486 4.93019C70.9268 5.01239 71.199 5.85019 70.6986 6.31535L67.8421 8.97079C67.6387 9.1599 67.5474 9.44072 67.6008 9.71329L68.351 13.5406C68.4824 14.2111 67.7697 14.7289 67.1727 14.3967L63.7645 12.5005C63.5218 12.3655 63.2265 12.3655 62.9838 12.5005L59.5756 14.3967C58.9786 14.7289 58.2659 14.2111 58.3973 13.5406L59.1475 9.71329C59.2009 9.44072 59.1097 9.1599 58.9062 8.97079L56.0497 6.31535C55.5493 5.85019 55.8215 5.01239 56.4998 4.93019L60.3716 4.46093C60.6473 4.42751 60.8862 4.25396 61.0032 4.00204L62.6459 0.46473Z" fill="url(#paint3_linear_1_2612)"/>
<path d="M81.2434 0.46473C81.5312 -0.15491 82.4121 -0.15491 82.6999 0.46473L84.3426 4.00204C84.4596 4.25396 84.6985 4.42751 84.9742 4.46093L88.8461 4.93019C89.5243 5.01239 89.7965 5.85019 89.2961 6.31535L86.4396 8.97079C86.2362 9.1599 86.1449 9.44072 86.1983 9.71329L86.9485 13.5406C87.0799 14.2111 86.3672 14.7289 85.7702 14.3967L82.362 12.5005C82.1193 12.3655 81.824 12.3655 81.5813 12.5005L78.1731 14.3967C77.5761 14.7289 76.8634 14.2111 76.9948 13.5406L77.745 9.71329C77.7984 9.44072 77.7072 9.1599 77.5037 8.97079L74.6472 6.31535C74.1468 5.85019 74.419 5.01239 75.0973 4.93019L78.9691 4.46093C79.2448 4.42751 79.4837 4.25396 79.6007 4.00204L81.2434 0.46473Z" fill="url(#paint4_linear_1_2612)"/>
<path d="M6.85346 0.46473C7.14123 -0.15491 8.02214 -0.15491 8.30991 0.46473L9.95265 4.00204C10.0696 4.25396 10.3085 4.42751 10.5843 4.46093L14.4561 4.93019C15.1343 5.01239 15.4065 5.85019 14.9062 6.31535L12.0496 8.97079C11.8462 9.1599 11.7549 9.44072 11.8084 9.71329L12.5585 13.5406C12.6899 14.2111 11.9773 14.7289 11.3802 14.3967L7.97204 12.5005C7.72932 12.3655 7.43404 12.3655 7.19132 12.5005L3.78314 14.3967C3.18611 14.7289 2.47344 14.2111 2.60485 13.5406L3.35501 9.71329C3.40844 9.44072 3.31719 9.1599 3.11376 8.97079L0.257216 6.31535C-0.243173 5.85019 0.0290457 5.01239 0.707282 4.93019L4.5791 4.46093C4.85484 4.42751 5.09372 4.25396 5.21072 4.00204L6.85346 0.46473Z" stroke="#092648" stroke-opacity="0.09" stroke-width="1.49509" mask="url(#path-1-inside-1_1_2612)"/>
<path d="M25.451 0.46473C25.7387 -0.15491 26.6196 -0.15491 26.9074 0.46473L28.5501 4.00204C28.6671 4.25396 28.906 4.42751 29.1818 4.46093L33.0536 4.93019C33.7318 5.01239 34.004 5.85019 33.5036 6.31535L30.6471 8.97079C30.4437 9.1599 30.3524 9.44072 30.4058 9.71329L31.156 13.5406C31.2874 14.2111 30.5747 14.7289 29.9777 14.3967L26.5695 12.5005C26.3268 12.3655 26.0315 12.3655 25.7888 12.5005L22.3806 14.3967C21.7836 14.7289 21.0709 14.2111 21.2023 13.5406L21.9525 9.71329C22.0059 9.44072 21.9147 9.1599 21.7113 8.97079L18.8547 6.31535C18.3543 5.85019 18.6265 5.01239 19.3048 4.93019L23.1766 4.46093C23.4523 4.42751 23.6912 4.25396 23.8082 4.00204L25.451 0.46473Z" stroke="#092648" stroke-opacity="0.09" stroke-width="1.49509" mask="url(#path-1-inside-1_1_2612)"/>
<path d="M44.0484 0.46473C44.3362 -0.15491 45.2171 -0.15491 45.5049 0.46473L47.1476 4.00204C47.2646 4.25396 47.5035 4.42751 47.7793 4.46093L51.6511 4.93019C52.3293 5.01239 52.6015 5.85019 52.1011 6.31535L49.2446 8.97079C49.0412 9.1599 48.9499 9.44072 49.0033 9.71329L49.7535 13.5406C49.8849 14.2111 49.1722 14.7289 48.5752 14.3967L45.167 12.5005C44.9243 12.3655 44.629 12.3655 44.3863 12.5005L40.9781 14.3967C40.3811 14.7289 39.6684 14.2111 39.7998 13.5406L40.55 9.71329C40.6034 9.44072 40.5122 9.1599 40.3087 8.97079L37.4522 6.31535C36.9518 5.85019 37.224 5.01239 37.9023 4.93019L41.7741 4.46093C42.0498 4.42751 42.2887 4.25396 42.4057 4.00204L44.0484 0.46473Z" stroke="#092648" stroke-opacity="0.09" stroke-width="1.49509" mask="url(#path-1-inside-1_1_2612)"/>
<path d="M62.6459 0.46473C62.9337 -0.15491 63.8146 -0.15491 64.1024 0.46473L65.7451 4.00204C65.8621 4.25396 66.101 4.42751 66.3768 4.46093L70.2486 4.93019C70.9268 5.01239 71.199 5.85019 70.6986 6.31535L67.8421 8.97079C67.6387 9.1599 67.5474 9.44072 67.6008 9.71329L68.351 13.5406C68.4824 14.2111 67.7697 14.7289 67.1727 14.3967L63.7645 12.5005C63.5218 12.3655 63.2265 12.3655 62.9838 12.5005L59.5756 14.3967C58.9786 14.7289 58.2659 14.2111 58.3973 13.5406L59.1475 9.71329C59.2009 9.44072 59.1097 9.1599 58.9062 8.97079L56.0497 6.31535C55.5493 5.85019 55.8215 5.01239 56.4998 4.93019L60.3716 4.46093C60.6473 4.42751 60.8862 4.25396 61.0032 4.00204L62.6459 0.46473Z" stroke="#092648" stroke-opacity="0.09" stroke-width="1.49509" mask="url(#path-1-inside-1_1_2612)"/>
<path d="M81.2434 0.46473C81.5312 -0.15491 82.4121 -0.15491 82.6999 0.46473L84.3426 4.00204C84.4596 4.25396 84.6985 4.42751 84.9742 4.46093L88.8461 4.93019C89.5243 5.01239 89.7965 5.85019 89.2961 6.31535L86.4396 8.97079C86.2362 9.1599 86.1449 9.44072 86.1983 9.71329L86.9485 13.5406C87.0799 14.2111 86.3672 14.7289 85.7702 14.3967L82.362 12.5005C82.1193 12.3655 81.824 12.3655 81.5813 12.5005L78.1731 14.3967C77.5761 14.7289 76.8634 14.2111 76.9948 13.5406L77.745 9.71329C77.7984 9.44072 77.7072 9.1599 77.5037 8.97079L74.6472 6.31535C74.1468 5.85019 74.419 5.01239 75.0973 4.93019L78.9691 4.46093C79.2448 4.42751 79.4837 4.25396 79.6007 4.00204L81.2434 0.46473Z" stroke="#092648" stroke-opacity="0.09" stroke-width="1.49509" mask="url(#path-1-inside-1_1_2612)"/>
<defs>
<linearGradient id="paint0_linear_1_2612" x1="93.8496" y1="7.25002" x2="0" y2="7.25002" gradientUnits="userSpaceOnUse">
<stop stop-color="#0CA4C3"/>
<stop offset="0.983357" stop-color="#35BBC2"/>
</linearGradient>
<linearGradient id="paint1_linear_1_2612" x1="93.8496" y1="7.25002" x2="0" y2="7.25002" gradientUnits="userSpaceOnUse">
<stop stop-color="#0CA4C3"/>
<stop offset="0.983357" stop-color="#35BBC2"/>
</linearGradient>
<linearGradient id="paint2_linear_1_2612" x1="93.8496" y1="7.25002" x2="0" y2="7.25002" gradientUnits="userSpaceOnUse">
<stop stop-color="#0CA4C3"/>
<stop offset="0.983357" stop-color="#35BBC2"/>
</linearGradient>
<linearGradient id="paint3_linear_1_2612" x1="93.8496" y1="7.25002" x2="0" y2="7.25002" gradientUnits="userSpaceOnUse">
<stop stop-color="#0CA4C3"/>
<stop offset="0.983357" stop-color="#35BBC2"/>
</linearGradient>
<linearGradient id="paint4_linear_1_2612" x1="93.8496" y1="7.25002" x2="0" y2="7.25002" gradientUnits="userSpaceOnUse">
<stop stop-color="#0CA4C3"/>
<stop offset="0.983357" stop-color="#35BBC2"/>
</linearGradient>
</defs>
</svg>
