<svg width="32" height="33" viewBox="0 0 32 33" fill="none" xmlns="http://www.w3.org/2000/svg">
<path d="M17 16.501V25.7822H18.4525C18.8451 25.7873 19.2245 25.6368 19.5125 25.3616C19.8005 25.0864 19.975 24.7077 20 24.3037C20.0116 24.0227 19.9488 23.7438 19.8182 23.4969C19.6876 23.25 19.4942 23.0445 19.2587 22.9025C19.1815 22.8571 19.1172 22.7917 19.072 22.7128C19.0268 22.6339 19.0024 22.5442 19.0012 22.4526V21.3195C19.001 21.2379 19.0196 21.1573 19.0555 21.0845C19.0914 21.0118 19.1435 20.9488 19.2076 20.9008C19.2716 20.8529 19.3458 20.8213 19.4241 20.8087C19.5023 20.7961 19.5823 20.8028 19.6575 20.8284C20.3358 21.0746 20.9244 21.53 21.3434 22.1327C21.7624 22.7354 21.9916 23.4564 22 24.198C22.02 26.2038 20.375 27.8447 18.4262 27.8447H17V29.9072C17 30.1807 16.8946 30.443 16.7071 30.6364C16.5196 30.8298 16.2652 30.9385 16 30.9385C15.7348 30.9385 15.4804 30.8298 15.2929 30.6364C15.1054 30.443 15 30.1807 15 29.9072V27.8447H12C11.8629 27.845 11.7272 27.8163 11.6014 27.7602C11.4755 27.7042 11.3622 27.6221 11.2684 27.5189C11.1746 27.4158 11.1024 27.2939 11.0562 27.1608C11.0101 27.0277 10.9909 26.8862 11 26.7452C11.0221 26.4795 11.1411 26.2324 11.333 26.0537C11.5248 25.875 11.7753 25.778 12.0337 25.7822H15V16.501H13.0575C11.9825 16.501 11.0575 17.3518 11.0025 18.4591C10.978 18.9539 11.1271 19.4413 11.4225 19.8321C11.7179 20.223 12.1399 20.491 12.6112 20.5873C12.7221 20.6119 12.8214 20.6753 12.8922 20.7667C12.963 20.858 13.0011 20.9718 13 21.0888V22.1729C13 22.3096 12.9473 22.4408 12.8536 22.5375C12.7598 22.6342 12.6326 22.6885 12.5 22.6885C11.8998 22.6887 11.3056 22.565 10.7524 22.3248C10.1993 22.0846 9.69826 21.7327 9.27894 21.2899C8.85963 20.847 8.53046 20.3221 8.31082 19.7461C8.09117 19.17 7.98549 18.5545 8 17.9357C8.05875 15.4027 10.125 13.4072 12.585 13.4072H15V3.09473C15 2.82122 15.1054 2.55892 15.2929 2.36552C15.4804 2.17213 15.7348 2.06348 16 2.06348C16.2652 2.06348 16.5196 2.17213 16.7071 2.36552C16.8946 2.55892 17 2.82122 17 3.09473V13.4072H21C21.2714 13.4076 21.54 13.351 21.7895 13.2409C22.039 13.1307 22.2641 12.9694 22.4512 12.7667C22.6384 12.564 22.7835 12.3241 22.8778 12.0617C22.9722 11.7993 23.0137 11.5198 23 11.2403C22.945 10.133 22.0175 9.28223 20.9425 9.28223H19.5C19.3674 9.28223 19.2402 9.2279 19.1464 9.1312C19.0527 9.03451 19 8.90335 19 8.7666V5.67285C19 5.5361 19.0527 5.40495 19.1464 5.30825C19.2402 5.21155 19.3674 5.15723 19.5 5.15723H21.4025C24.48 5.15723 27.0525 7.75469 26.9987 10.9271C26.9738 12.4141 26.3836 13.8315 25.3551 14.8741C24.3266 15.9166 22.9422 16.5009 21.5 16.501H17ZM11.5825 9.28223H12.5C12.6326 9.28223 12.7598 9.2279 12.8536 9.1312C12.9473 9.03451 13 8.90335 13 8.7666V5.67285C13 5.5361 12.9473 5.40495 12.8536 5.30825C12.7598 5.21155 12.6326 5.15723 12.5 5.15723H8C6.67392 5.15723 5.40215 5.70047 4.46447 6.66746C3.52678 7.63444 3 8.94595 3 10.3135V11.3447C3 11.6182 3.10536 11.8805 3.29289 12.0739C3.48043 12.2673 3.73478 12.376 4 12.376H7C7.97287 12.376 8.92461 12.0833 9.73857 11.5337C10.5525 10.9842 11.1934 10.2017 11.5825 9.28223Z" fill="url(#paint0_linear_2202_14496)"/>
<defs>
<linearGradient id="paint0_linear_2202_14496" x1="14.9998" y1="2.06348" x2="14.9998" y2="30.9385" gradientUnits="userSpaceOnUse">
<stop stop-color="#0CA4C3"/>
<stop offset="0.7" stop-color="#35BBC2"/>
</linearGradient>
</defs>
</svg>
