<svg width="49" height="49" viewBox="0 0 49 49" fill="none" xmlns="http://www.w3.org/2000/svg">
<rect width="49" height="49" rx="5.91379" fill="url(#paint0_linear_1714_12546)"/>
<path d="M32.25 38.7083C30.4632 38.7083 28.9403 38.0784 27.6814 36.8186C26.4224 35.5588 25.7925 34.0359 25.7917 32.25C25.7908 30.4641 26.4207 28.9412 27.6814 27.6814C28.942 26.4216 30.4649 25.7917 32.25 25.7917C34.0351 25.7917 35.5584 26.4216 36.8199 27.6814C38.0814 28.9412 38.7109 30.4641 38.7083 32.25C38.7058 34.0359 38.0758 35.5592 36.8186 36.8199C35.5614 38.0806 34.0385 38.7101 32.25 38.7083ZM18.0417 20.625H30.9583V18.0417H18.0417V20.625ZM24.0802 36.125H15.4583C14.7479 36.125 14.14 35.8723 13.6345 35.3668C13.129 34.8613 12.8759 34.2529 12.875 33.5417V15.4583C12.875 14.7479 13.1282 14.14 13.6345 13.6345C14.1408 13.129 14.7488 12.8759 15.4583 12.875H33.5417C34.2521 12.875 34.8605 13.1282 35.3668 13.6345C35.8731 14.1408 36.1259 14.7488 36.125 15.4583V24.1125C35.5007 23.8111 34.8708 23.5851 34.2353 23.4344C33.5998 23.2837 32.938 23.2083 32.25 23.2083C32.0132 23.2083 31.7923 23.2135 31.5874 23.2238C31.3824 23.2342 31.1728 23.2613 30.9583 23.3052V23.2083H18.0417V25.7917H25.9531C25.5656 26.1576 25.216 26.5559 24.9043 26.9865C24.5926 27.417 24.3179 27.8799 24.0802 28.375H18.0417V30.9583H23.3052C23.2622 31.1736 23.2355 31.3837 23.2251 31.5887C23.2148 31.7936 23.2092 32.0141 23.2083 32.25C23.2083 32.9604 23.2729 33.6226 23.4021 34.2366C23.5312 34.8506 23.7573 35.48 24.0802 36.125ZM33.623 31.6855C33.9993 31.3084 34.1875 30.8507 34.1875 30.3125C34.1875 29.7743 33.9993 29.3171 33.623 28.9407C33.2467 28.5644 32.7891 28.3759 32.25 28.375C31.7109 28.3741 31.2537 28.5627 30.8783 28.9407C30.5028 29.3188 30.3142 29.776 30.3125 30.3125C30.3108 30.849 30.4994 31.3067 30.8783 31.6855C31.2571 32.0644 31.7144 32.2526 32.25 32.25C32.7856 32.2474 33.2433 32.0593 33.623 31.6855ZM34.0583 35.6729C34.6181 35.3715 35.0809 34.9517 35.4469 34.4135C34.9517 34.1122 34.4351 33.8913 33.8969 33.7509C33.3587 33.6106 32.8097 33.5408 32.25 33.5417C31.6903 33.5425 31.1413 33.6127 30.6031 33.7522C30.0649 33.8917 29.5483 34.1122 29.0531 34.4135C29.4191 34.9517 29.8819 35.3715 30.4417 35.6729C31.0014 35.9743 31.6042 36.125 32.25 36.125C32.8958 36.125 33.4986 35.9743 34.0583 35.6729Z" fill="white"/>
<defs>
<linearGradient id="paint0_linear_1714_12546" x1="24.5" y1="0" x2="24.5" y2="49" gradientUnits="userSpaceOnUse">
<stop stop-color="#0CA4C3"/>
<stop offset="0.7" stop-color="#35BBC2"/>
</linearGradient>
</defs>
</svg>
