<svg width="49" height="49" viewBox="0 0 49 49" fill="none" xmlns="http://www.w3.org/2000/svg">
<rect width="49" height="49" rx="5.91379" fill="url(#paint0_linear_2206_15280)"/>
<path d="M15.9364 11.1796C16.0975 11.32 16.2077 11.5098 16.2498 11.7194C16.2918 11.9289 16.2634 12.1465 16.1689 12.3382C16.1517 12.3947 16.1432 12.4535 16.1437 12.5126C16.1437 12.6347 16.1747 12.8672 16.4673 13.1578C16.6087 13.2992 16.7172 13.4 16.8354 13.5104C16.9323 13.5995 17.035 13.6925 17.1648 13.8204C17.4166 14.0607 17.6821 14.3435 17.9204 14.6981C18.4145 15.4402 18.6876 16.3682 18.6876 17.7187C18.6876 18.4588 18.5656 19.1524 18.3428 19.7666C17.7111 21.5104 16.291 22.5624 14.8126 22.5624C13.3343 22.5624 11.9141 21.5084 11.2825 19.7666C11.0495 19.1092 10.9328 18.4162 10.9376 17.7187C10.9376 17.087 11.1062 16.3334 11.3387 15.6378C11.5712 14.9422 11.8967 14.2195 12.2726 13.6383C12.7201 12.8827 13.3498 12.2491 13.8381 11.8229C14.1067 11.5886 14.386 11.3669 14.6751 11.1583L14.7332 11.1195L14.7506 11.106L14.7565 11.1021L14.7603 11.1002C14.938 10.9817 15.1498 10.9253 15.3628 10.9397C15.5759 10.9541 15.7782 11.0384 15.9383 11.1796M14.8126 24.4999C16.0433 24.503 17.2356 24.0722 18.18 23.2832C18.2188 23.4046 18.2556 23.5273 18.2905 23.6513C18.6876 25.1083 18.6876 26.9102 18.6876 28.3032V28.3749C18.6876 32.3623 17.9417 34.7299 17.097 36.1385C16.7769 36.6925 16.3579 37.183 15.8608 37.5858C15.6631 37.7388 15.4486 37.8688 15.2215 37.9733C15.2215 37.9733 14.9754 38.0624 14.8126 38.0624C14.673 38.0513 14.5354 38.0213 14.4038 37.9733C14.1767 37.8688 13.9622 37.7388 13.7645 37.5858C13.2674 37.183 12.8484 36.6925 12.5283 36.1385C11.6836 34.7319 10.9376 32.3623 10.9376 28.3749V28.3052C10.9376 26.9102 10.9376 25.1102 11.3348 23.6494C11.3684 23.5279 11.4052 23.4052 11.4453 23.2812C12.3889 24.0724 13.5813 24.5053 14.8126 24.5038M22.5588 30.264C21.8872 30.189 21.2266 30.0362 20.5903 29.8087C20.6135 29.3204 20.6251 28.8167 20.6251 28.2974V27.7239C21.2258 28.0087 21.8768 28.2083 22.5588 28.3052V24.4999C22.5588 23.4722 22.967 22.4866 23.6937 21.7599C24.4204 21.0332 25.4061 20.6249 26.4338 20.6249H30.241C30.0868 19.5537 29.6786 18.5349 29.0502 17.6536C28.4219 16.7724 27.5918 16.0544 26.6293 15.5596C25.6667 15.0647 24.5997 14.8075 23.5174 14.8093C22.4351 14.8111 21.369 15.0719 20.4081 15.57C20.2559 14.9366 20.0049 14.3311 19.6641 13.7759C20.9199 13.1552 22.3067 12.8463 23.7071 12.8753C25.1076 12.9042 26.4804 13.2701 27.7095 13.942C28.9385 14.6139 29.9876 15.5721 30.7678 16.7354C31.5481 17.8987 32.0366 19.2328 32.192 20.6249H34.1818C35.2095 20.6249 36.1952 21.0332 36.9219 21.7599C37.6486 22.4866 38.0568 23.4722 38.0568 24.4999V32.2499C38.0568 33.2776 37.6486 34.2633 36.9219 34.99C36.1952 35.7167 35.2095 36.1249 34.1818 36.1249H26.4318C25.4041 36.1249 24.4185 35.7167 23.6918 34.99C22.9651 34.2633 22.5568 33.2776 22.5568 32.2499L22.5588 30.264ZM32.194 22.5624C31.9745 24.5285 31.0929 26.3614 29.6941 27.7603C28.2953 29.1591 26.4623 30.0406 24.4963 30.2601V32.2499C24.4963 32.7638 24.7004 33.2566 25.0638 33.6199C25.4271 33.9833 25.9199 34.1874 26.4338 34.1874H34.1838C34.6976 34.1874 35.1904 33.9833 35.5538 33.6199C35.9171 33.2566 36.1213 32.7638 36.1213 32.2499V24.4999C36.1213 23.9861 35.9171 23.4933 35.5538 23.1299C35.1904 22.7666 34.6976 22.5624 34.1838 22.5624H32.194ZM30.241 22.5624H26.4338C25.9199 22.5624 25.4271 22.7666 25.0638 23.1299C24.7004 23.4933 24.4963 23.9861 24.4963 24.4999V28.3071C25.9457 28.0982 27.2886 27.4258 28.3241 26.3903C29.3596 25.3548 30.0321 24.0119 30.241 22.5624Z" fill="white"/>
<defs>
<linearGradient id="paint0_linear_2206_15280" x1="24.5" y1="0" x2="24.5" y2="49" gradientUnits="userSpaceOnUse">
<stop stop-color="#0CA4C3"/>
<stop offset="0.7" stop-color="#35BBC2"/>
</linearGradient>
</defs>
</svg>
