<svg width="49" height="49" viewBox="0 0 49 49" fill="none" xmlns="http://www.w3.org/2000/svg">
<rect width="49" height="49" rx="5.91379" fill="url(#paint0_linear_1717_28208)"/>
<g clip-path="url(#clip0_1717_28208)">
<path d="M26.5 20.5V18.5H24.5C24.2348 18.5 23.9804 18.6054 23.7929 18.7929C23.6054 18.9804 23.5 19.2348 23.5 19.5V29.5C23.5 29.7652 23.6054 30.0196 23.7929 30.2071C23.9804 30.3946 24.2348 30.5 24.5 30.5H26.5V28.5C26.5 27.9696 26.7107 27.4609 27.0858 27.0858C27.4609 26.7107 27.9696 26.5 28.5 26.5H34.5C35.0304 26.5 35.5391 26.7107 35.9142 27.0858C36.2893 27.4609 36.5 27.9696 36.5 28.5V34.5C36.5 35.0304 36.2893 35.5391 35.9142 35.9142C35.5391 36.2893 35.0304 36.5 34.5 36.5H28.5C27.9696 36.5 27.4609 36.2893 27.0858 35.9142C26.7107 35.5391 26.5 35.0304 26.5 34.5V32.5H24.5C23.7044 32.5 22.9413 32.1839 22.3787 31.6213C21.8161 31.0587 21.5 30.2956 21.5 29.5V25.5H17.5V26.5C17.5 27.0304 17.2893 27.5391 16.9142 27.9142C16.5391 28.2893 16.0304 28.5 15.5 28.5H11.5C10.9696 28.5 10.4609 28.2893 10.0858 27.9142C9.71071 27.5391 9.5 27.0304 9.5 26.5V22.5C9.5 21.9696 9.71071 21.4609 10.0858 21.0858C10.4609 20.7107 10.9696 20.5 11.5 20.5H15.5C16.0304 20.5 16.5391 20.7107 16.9142 21.0858C17.2893 21.4609 17.5 21.9696 17.5 22.5V23.5H21.5V19.5C21.5 18.7044 21.8161 17.9413 22.3787 17.3787C22.9413 16.8161 23.7044 16.5 24.5 16.5H26.5V14.5C26.5 13.9696 26.7107 13.4609 27.0858 13.0858C27.4609 12.7107 27.9696 12.5 28.5 12.5H34.5C35.0304 12.5 35.5391 12.7107 35.9142 13.0858C36.2893 13.4609 36.5 13.9696 36.5 14.5V20.5C36.5 21.0304 36.2893 21.5391 35.9142 21.9142C35.5391 22.2893 35.0304 22.5 34.5 22.5H28.5C27.9696 22.5 27.4609 22.2893 27.0858 21.9142C26.7107 21.5391 26.5 21.0304 26.5 20.5Z" fill="white"/>
</g>
<defs>
<linearGradient id="paint0_linear_1717_28208" x1="24.5" y1="0" x2="24.5" y2="49" gradientUnits="userSpaceOnUse">
<stop stop-color="#0CA4C3"/>
<stop offset="0.7" stop-color="#35BBC2"/>
</linearGradient>
<clipPath id="clip0_1717_28208">
<rect width="32" height="32" fill="white" transform="translate(8.5 8.5)"/>
</clipPath>
</defs>
</svg>
