<svg width="50" height="50" viewBox="0 0 50 50" fill="none" xmlns="http://www.w3.org/2000/svg">
<rect width="49.0625" height="49.3854" rx="7" fill="url(#paint0_linear_1672_15470)"/>
<path fill-rule="evenodd" clip-rule="evenodd" d="M19.8858 12.128C19.5738 12.8514 19.1489 13.9215 18.875 14.9878C16.5378 15.117 14.8412 15.3172 13.6541 15.5064C11.8064 15.8009 10.5541 17.2954 10.3759 19.0759C10.197 20.8629 10 23.6271 10 27.1146C10 30.6028 10.197 33.3663 10.3759 35.1533C10.5535 36.9332 11.8064 38.4277 13.6541 38.7228C15.6433 39.0406 19.0623 39.3854 24.5312 39.3854C30.0002 39.3854 33.4186 39.0406 35.4084 38.7228C37.2561 38.4283 38.5084 36.9339 38.6866 35.1533C38.8655 33.3656 39.0625 30.6028 39.0625 27.1146C39.0625 23.6265 38.8655 20.8629 38.6866 19.0759C38.509 17.296 37.2561 15.8015 35.4084 15.5064C34.2213 15.3165 32.5247 15.1176 30.1881 14.9878C29.9143 13.9215 29.4893 12.8507 29.1774 12.128C28.7524 11.1438 27.8696 10.3462 26.7025 10.1628C25.984 10.0531 25.2581 9.99866 24.5312 10C23.6542 10 22.9205 10.0749 22.3606 10.1628C21.1936 10.3462 20.3107 11.1444 19.8858 12.128ZM24.5312 12.5834C23.8015 12.5834 23.2021 12.6454 22.7617 12.7151C22.5757 12.7442 22.3755 12.8785 22.2579 13.1523C22.012 13.7178 21.7916 14.2941 21.5972 14.8793C22.5014 14.856 23.4794 14.8442 24.5312 14.8438C25.5831 14.8442 26.5613 14.856 27.4659 14.8793C27.2718 14.2941 27.0515 13.7179 26.8059 13.1523C26.6877 12.8785 26.4875 12.7442 26.3008 12.7151C25.7152 12.6262 25.1236 12.5821 24.5312 12.5834ZM23.0458 33.4825C22.4388 33.4005 22.048 32.88 22.0254 32.2671C22.0041 31.6826 21.9802 30.8301 21.9647 29.6818C21.1027 29.6714 20.2409 29.6511 19.3794 29.6211C18.7665 29.5985 18.246 29.2078 18.164 28.6007C18.1 28.1079 18.0696 27.6115 18.0729 27.1146C18.0729 26.4959 18.1123 26.0044 18.1633 25.6285C18.2454 25.0215 18.7659 24.6307 19.3788 24.6081C19.9633 24.5868 20.8158 24.5629 21.9641 24.5474C21.9796 23.3991 22.0035 22.5466 22.0248 21.9621C22.0474 21.3493 22.4381 20.8287 23.0452 20.7467C23.4211 20.6957 23.9125 20.6563 24.5312 20.6563C25.15 20.6563 25.6414 20.6957 26.0173 20.7467C26.6244 20.8287 27.0151 21.3493 27.0377 21.9621C27.059 22.5466 27.0829 23.3991 27.0984 24.5474C28.2467 24.5629 29.0992 24.5868 29.6837 24.6081C30.2966 24.6307 30.8171 25.0215 30.8992 25.6285C30.9502 26.0044 30.9896 26.4959 30.9896 27.1146C30.9896 27.7333 30.9502 28.2248 30.8992 28.6007C30.8171 29.2078 30.2966 29.5985 29.6837 29.6211C29.0992 29.6424 28.2467 29.6663 27.0984 29.6818C27.088 30.5438 27.0678 31.4056 27.0377 32.2671C27.0151 32.88 26.6244 33.4005 26.0173 33.4825C25.6414 33.5335 25.15 33.5729 24.5312 33.5729C23.9125 33.5729 23.4211 33.5335 23.0452 33.4825H23.0458Z" fill="white"/>
<defs>
<linearGradient id="paint0_linear_1672_15470" x1="24.5312" y1="0" x2="24.5313" y2="49.3854" gradientUnits="userSpaceOnUse">
<stop stop-color="#0CA4C3"/>
<stop offset="0.7" stop-color="#35BBC2"/>
</linearGradient>
</defs>
</svg>
