<svg width="49" height="49" viewBox="0 0 49 49" fill="none" xmlns="http://www.w3.org/2000/svg">
<rect width="49" height="49" rx="5.91379" fill="url(#paint0_linear_1672_15497)"/>
<path d="M28.3506 27.7477C29.4075 26.69 29.936 25.4059 29.936 23.8955C29.936 22.3851 29.4075 21.1014 28.3506 20.0445C27.2937 18.9877 26.0097 18.4588 24.4985 18.458C22.9872 18.4572 21.7036 18.986 20.6475 20.0445C19.5914 21.103 19.0626 22.3867 19.061 23.8955C19.0593 25.4043 19.5882 26.6884 20.6475 27.7477C21.7068 28.807 22.9905 29.3354 24.4985 29.333C26.0065 29.3306 27.2905 28.8021 28.3506 27.7477ZM22.1881 26.2058C21.5533 25.5719 21.236 24.8018 21.236 23.8955C21.236 22.9893 21.5533 22.2191 22.1881 21.5852C22.8229 20.9512 23.593 20.6338 24.4985 20.633C25.4039 20.6322 26.1744 20.9496 26.81 21.5852C27.4456 22.2208 27.7626 22.9909 27.761 23.8955C27.7593 24.8001 27.4424 25.5707 26.81 26.2071C26.1776 26.8434 25.4071 27.1604 24.4985 27.158C23.5898 27.1556 22.8197 26.8386 22.1881 26.2071M17.1131 30.783C14.8874 29.333 13.1301 27.4198 11.8412 25.0434C11.7405 24.8622 11.6652 24.6761 11.6152 24.4852C11.5653 24.2943 11.5399 24.0977 11.5391 23.8955C11.5383 23.6933 11.5637 23.4968 11.6152 23.3058C11.6668 23.1149 11.7421 22.9288 11.8412 22.7476C13.1301 20.3712 14.8874 18.458 17.1131 17.008C19.3389 15.558 21.8006 14.833 24.4985 14.833C27.1963 14.833 29.6584 15.558 31.885 17.008C34.1116 18.458 35.8685 20.3712 37.1557 22.7476C37.2564 22.9288 37.3322 23.1153 37.3829 23.307C37.4337 23.4988 37.4586 23.6949 37.4578 23.8955C37.457 24.0961 37.4321 24.2926 37.3829 24.4852C37.3338 24.6777 37.2581 24.8638 37.1557 25.0434C35.8669 27.4198 34.1099 29.333 31.885 30.783C29.6601 32.233 27.1979 32.958 24.4985 32.958C21.799 32.958 19.3381 32.233 17.1131 30.783Z" fill="white"/>
<defs>
<linearGradient id="paint0_linear_1672_15497" x1="24.5" y1="0" x2="24.5" y2="49" gradientUnits="userSpaceOnUse">
<stop stop-color="#0CA4C3"/>
<stop offset="0.7" stop-color="#35BBC2"/>
</linearGradient>
</defs>
</svg>
