<svg width="49" height="49" viewBox="0 0 49 49" fill="none" xmlns="http://www.w3.org/2000/svg">
<rect width="49" height="49" rx="5.91379" fill="url(#paint0_linear_2206_15265)"/>
<g clip-path="url(#clip0_2206_15265)">
<path d="M21.375 12C22.1812 12 22.9313 12.235 23.5625 12.64V36.0563C22.7503 36.6694 21.7602 37.0007 20.7425 37C18.585 37 16.7488 35.5163 16.2088 33.5C15.0347 33.3118 13.9662 32.7114 13.1948 31.8066C12.4235 30.9017 11.9999 29.7515 12 28.5625V28.25C12 26.2975 13.12 24.6075 14.7513 23.785C14.0974 23.1606 13.6313 22.3657 13.4057 21.4901C13.1801 20.6146 13.204 19.6935 13.4746 18.8308C13.7453 17.9681 14.2519 17.1984 14.9372 16.6087C15.6225 16.019 16.4591 15.6328 17.3525 15.4938C17.4895 14.5245 17.972 13.6373 18.711 12.9954C19.4501 12.3535 20.3961 12 21.375 12ZM25.4375 16.825C25.5367 16.8917 25.6408 16.9496 25.75 16.9988L27.5 17.5738C28.1462 17.7925 28.7675 18.2812 28.9875 18.9362L29.5 20.7487C29.63 21.1301 29.8756 21.4615 30.2027 21.6967C30.5298 21.932 30.9221 22.0594 31.325 22.0612C31.62 22.065 31.9125 21.9962 32.175 21.8612C32.025 22.1112 31.9487 22.3962 31.95 22.6862C31.945 23.3612 32.4025 23.9963 33.0375 24.2238C33.5075 24.3738 34.2962 24.45 34.475 24.9988C34.775 25.9488 35.1012 27.0612 36.325 27.0612C36.4977 27.0622 36.6694 27.0356 36.8338 26.9825C36.9432 27.3961 36.999 27.8221 37 28.25V28.5625C37.0001 29.7515 36.5765 30.9017 35.8052 31.8066C35.0338 32.7114 33.9653 33.3118 32.7912 33.5C32.2525 35.5163 30.415 37 28.2575 37C27.2398 37.0007 26.2497 36.6694 25.4375 36.0563V16.825ZM36.355 19.5C36.4332 19.4995 36.5095 19.5235 36.5734 19.5685C36.6373 19.6136 36.6855 19.6775 36.7112 19.7513L37.0237 20.7088C37.1209 20.9993 37.2843 21.2633 37.501 21.4798C37.7177 21.6963 37.9819 21.8594 38.2725 21.9563L39.2288 22.2663L39.2475 22.2713C39.3024 22.2911 39.3519 22.3232 39.3924 22.3653C39.4328 22.4073 39.463 22.4581 39.4807 22.5137C39.4983 22.5693 39.5029 22.6282 39.4941 22.6859C39.4853 22.7436 39.4634 22.7984 39.43 22.8463C39.385 22.91 39.3212 22.958 39.2475 22.9837L38.2913 23.2937C38.0006 23.3906 37.7365 23.5537 37.5198 23.7702C37.303 23.9867 37.1396 24.2507 37.0425 24.5412L36.7312 25.4987C36.7048 25.572 36.6564 25.6354 36.5927 25.6801C36.5289 25.7249 36.4529 25.7489 36.375 25.7489C36.2971 25.7489 36.2211 25.7249 36.1573 25.6801C36.0936 25.6354 36.0452 25.572 36.0188 25.4987L35.7063 24.5412C35.6099 24.2499 35.447 23.985 35.2305 23.7676C35.0139 23.5502 34.7497 23.3863 34.4587 23.2888L33.5025 22.9787C33.4476 22.9589 33.3981 22.9268 33.3576 22.8847C33.3172 22.8427 33.287 22.7919 33.2693 22.7363C33.2517 22.6807 33.2471 22.6218 33.2559 22.5641C33.2647 22.5064 33.2866 22.4516 33.32 22.4037C33.365 22.34 33.4288 22.292 33.5025 22.2663L34.4587 21.9563C34.7459 21.8569 35.0063 21.6927 35.2196 21.4763C35.433 21.26 35.5935 20.9973 35.6888 20.7088L36 19.75C36.0259 19.6767 36.074 19.6132 36.1376 19.5684C36.2012 19.5236 36.2772 19.4997 36.355 19.5ZM31.3412 9.5C31.4817 9.50044 31.6186 9.54428 31.7331 9.6255C31.8477 9.70673 31.9344 9.82137 31.9813 9.95375L32.5425 11.6737C32.7167 12.1969 33.0105 12.6722 33.4004 13.0621C33.7902 13.452 34.2656 13.7458 34.7888 13.92L36.5112 14.4788L36.5462 14.4875C36.6785 14.5353 36.7929 14.6226 36.8741 14.7374C36.9552 14.8523 36.9992 14.9894 37 15.13C37.0007 15.2709 36.9574 15.4084 36.876 15.5234C36.7946 15.6384 36.6793 15.7251 36.5462 15.7713L34.8238 16.33C34.3003 16.5038 33.8245 16.7972 33.4342 17.1869C33.0438 17.5765 32.7497 18.0518 32.575 18.575L32.0163 20.295L32 20.3375C31.9457 20.4632 31.8548 20.5696 31.7392 20.6428C31.6236 20.7161 31.4886 20.7528 31.3518 20.7482C31.215 20.7436 31.0827 20.698 30.9722 20.6171C30.8618 20.5363 30.7782 20.424 30.7325 20.295L30.175 18.575C30.0018 18.0501 29.7084 17.5729 29.3182 17.1814C28.928 16.7899 28.4518 16.495 27.9275 16.32L26.205 15.7612C26.0727 15.7137 25.9581 15.6267 25.8768 15.5121C25.7954 15.3974 25.7512 15.2606 25.75 15.12C25.7493 14.9791 25.7926 14.8416 25.874 14.7266C25.9554 14.6116 26.0707 14.5249 26.2037 14.4788L27.9263 13.92C28.4361 13.7439 28.8991 13.4538 29.2801 13.072C29.6611 12.6901 29.95 12.2265 30.125 11.7163L30.14 11.6737L30.6987 9.95375C30.7466 9.82148 30.8338 9.70705 30.9487 9.62591C31.0636 9.54478 31.2006 9.50083 31.3412 9.5Z" fill="white"/>
</g>
<defs>
<linearGradient id="paint0_linear_2206_15265" x1="24.5" y1="0" x2="24.5" y2="49" gradientUnits="userSpaceOnUse">
<stop stop-color="#0CA4C3"/>
<stop offset="0.7" stop-color="#35BBC2"/>
</linearGradient>
<clipPath id="clip0_2206_15265">
<rect width="30" height="30" fill="white" transform="translate(9.5 9.5)"/>
</clipPath>
</defs>
</svg>
