<svg width="49" height="49" viewBox="0 0 49 49" fill="none" xmlns="http://www.w3.org/2000/svg">
<rect width="49" height="49" rx="5.91379" fill="url(#paint0_linear_2206_15283)"/>
<path d="M12.125 30.6875V34.8125C12.125 35.3595 12.3423 35.8841 12.7291 36.2709C13.1159 36.6577 13.6405 36.875 14.1875 36.875H18.3125M30.6875 36.875H34.8125C35.3595 36.875 35.8841 36.6577 36.2709 36.2709C36.6577 35.8841 36.875 35.3595 36.875 34.8125V30.6875M36.875 18.3125V14.1875C36.875 13.6405 36.6577 13.1159 36.2709 12.7291C35.8841 12.3423 35.3595 12.125 34.8125 12.125H30.6875M12.125 18.3125V14.1875C12.125 13.6405 12.3423 13.1159 12.7291 12.7291C13.1159 12.3423 13.6405 12.125 14.1875 12.125H18.3125" stroke="white" stroke-width="3" stroke-linejoin="round"/>
<path d="M31.3735 24.5004L24.4985 31.3754L17.6235 24.5004C16.936 23.8129 16.5923 22.4379 17.6235 21.0629C18.6548 19.6879 20.7173 19.6879 21.7485 20.3754C22.7798 21.0629 23.1235 21.7504 24.4985 21.7504C25.8735 21.7504 26.2173 21.0629 27.2485 20.3754C28.2798 19.6879 30.3423 19.6879 31.3735 21.0629C32.4048 22.4379 32.061 23.8129 31.3735 24.5004Z" fill="white" stroke="white" stroke-width="3" stroke-linejoin="round"/>
<defs>
<linearGradient id="paint0_linear_2206_15283" x1="24.5" y1="0" x2="24.5" y2="49" gradientUnits="userSpaceOnUse">
<stop stop-color="#0CA4C3"/>
<stop offset="0.7" stop-color="#35BBC2"/>
</linearGradient>
</defs>
</svg>
