<svg width="49" height="49" viewBox="0 0 49 49" fill="none" xmlns="http://www.w3.org/2000/svg">
<rect width="49" height="49" rx="5.91379" fill="url(#paint0_linear_2206_15271)"/>
<path fill-rule="evenodd" clip-rule="evenodd" d="M12.2356 13.0342C11.8012 13.0342 11.3846 13.2067 11.0774 13.5139C10.7702 13.8211 10.5977 14.2377 10.5977 14.6721V30.2326C10.5977 30.667 10.7702 31.0836 11.0774 31.3908C11.3846 31.6979 11.8012 31.8705 12.2356 31.8705H36.8047C37.2391 31.8705 37.6558 31.6979 37.9629 31.3908C38.2701 31.0836 38.4427 30.667 38.4427 30.2326V14.6721C38.4427 14.2377 38.2701 13.8211 37.9629 13.5139C37.6558 13.2067 37.2391 13.0342 36.8047 13.0342H12.2356ZM23.2917 18.767V21.6334H20.4253V23.2713H23.2917V26.1377H24.9297V23.2713H27.7961V21.6334H24.9297V18.767H23.2917ZM13.8735 28.5946V16.3101H35.1668V28.5946H13.8735ZM12.2356 15.4911C12.2356 15.2739 12.3219 15.0656 12.4755 14.912C12.6291 14.7584 12.8374 14.6721 13.0546 14.6721H35.9858C36.203 14.6721 36.4113 14.7584 36.5649 14.912C36.7184 15.0656 36.8047 15.2739 36.8047 15.4911V29.4136C36.8047 29.6308 36.7184 29.8391 36.5649 29.9927C36.4113 30.1463 36.203 30.2326 35.9858 30.2326H13.0546C12.8374 30.2326 12.6291 30.1463 12.4755 29.9927C12.3219 29.8391 12.2356 29.6308 12.2356 29.4136V15.4911Z" fill="white"/>
<path d="M10.6462 30.619C10.7198 30.5006 10.8223 30.403 10.9441 30.3354C11.0659 30.2678 11.203 30.2323 11.3423 30.2324H37.5265C37.6626 30.2324 37.7965 30.2664 37.9162 30.3311C38.0359 30.3959 38.1375 30.4895 38.212 30.6034L40.89 34.6983C40.9708 34.8219 41.0166 34.9652 41.0227 35.1127C41.0287 35.2603 40.9947 35.4068 40.9243 35.5367C40.8539 35.6665 40.7497 35.7749 40.6227 35.8504C40.4956 35.9258 40.3506 35.9655 40.2029 35.9652H8.79533C8.64932 35.9652 8.50598 35.9261 8.38014 35.8521C8.25431 35.778 8.15056 35.6716 8.07965 35.544C8.00873 35.4164 7.97323 35.2721 7.97681 35.1261C7.98039 34.9802 8.02293 34.8378 8.10003 34.7138L10.6462 30.619Z" fill="white"/>
<defs>
<linearGradient id="paint0_linear_2206_15271" x1="24.5" y1="0" x2="24.5" y2="49" gradientUnits="userSpaceOnUse">
<stop stop-color="#0CA4C3"/>
<stop offset="0.7" stop-color="#35BBC2"/>
</linearGradient>
</defs>
</svg>
